<?xml version="1.0" encoding="utf-8"?>
<!-- Generator: Adobe Illustrator 25.2.2, SVG Export Plug-In . SVG Version: 6.00 Build 0)  -->
<svg version="1.2" baseProfile="tiny" id="Calque_1"
	 xmlns="http://www.w3.org/2000/svg" xmlns:xlink="http://www.w3.org/1999/xlink" x="0px" y="0px" viewBox="0 0 345.25 345.8"
	 overflow="visible" xml:space="preserve">
<g>
	<g>
		<radialGradient id="SVGID_1_" cx="-31.691" cy="11.86" r="515.1953" gradientUnits="userSpaceOnUse">
			<stop  offset="0" style="stop-color:#B7B7B6"/>
			<stop  offset="0.778" style="stop-color:#000000"/>
		</radialGradient>
		<path fill="url(#SVGID_1_)" d="M344.15,153.81c-7.04-54.78-33.81-97.25-80.18-127.12c-24.62-15.87-51.87-24.21-81.11-25.97
			c-0.63-0.04-1.24-0.21-1.87-0.32c-2.98,0-5.96,0-8.94,0v66.09c4.81-0.02,9.66,0.28,14.58,0.85c-2.14,17.85-4.26,35.57-6.4,53.45
			c13.64,2.21,24.73,8.66,33.54,19.2c14.3-10.72,28.46-21.33,42.85-32.12c5.8,7.48,10.41,15.51,14.21,24.35
			c-16.4,7.02-32.71,13.99-49.24,21.06c4.97,12.92,5.08,25.86,0.29,38.95c16.27,6.95,32.41,13.86,48.82,20.87
			c-3.62,8.82-8.23,16.81-13.97,24.45c-14.21-10.62-28.32-21.17-42.58-31.83c-4.29,5.25-9.21,9.65-15.01,13.03
			c-5.75,3.35-11.93,5.52-18.81,6.64c2.09,17.44,4.17,34.8,6.29,52.52c-4.86,0.71-9.71,1.03-14.58,1.01v66.88c2.98,0,5.96,0,8.94,0
			c3.74-0.38,7.49-0.72,11.23-1.15c28.3-3.25,54.27-12.84,77.71-29c31.32-21.59,53.3-50.4,65.91-86.3
			c5.18-14.74,8.13-29.95,9.07-45.55c0.05-0.88,0.23-1.76,0.34-2.63c0-5.5,0-11,0-16.5C344.89,161.04,344.61,157.41,344.15,153.81z
			 M269.72,79.21c-18.24-18.45-39.32-30.68-63.92-37.08c0.95-3.8,1.86-7.44,2.85-11.39c-2.2-0.52-4.32-1.18-6.49-1.49
			c-6.89-0.98-13.79-1.86-20.7-2.68c-1.24-0.15-1.83-0.37-1.7-1.79c0.29-3.23,0.43-6.48,0.65-10.02
			c19.81,0.94,38.63,5.39,56.58,13.44c28.64,12.84,51.44,32.54,68.86,58.9c-3.27,2.16-6.45,4.26-9.84,6.51
			c-5.4-8.2-11.33-15.84-18.6-23.24C274.81,73.34,272.31,76.21,269.72,79.21z M248.85,312.12c-24.6,13.65-51.21,18.88-68.46,19.16
			c-0.23-3.82-0.46-7.5-0.7-11.43c9.81-0.7,19.4-1.88,28.95-4.43c-0.95-3.79-1.86-7.43-2.84-11.35
			c24.48-6.4,45.59-18.57,63.53-36.72c2.78,2.69,5.5,5.34,8.38,8.13c6.94-6.99,12.85-14.63,18.33-22.88
			c3.31,2.19,6.48,4.29,9.78,6.47C291.1,281.56,272.16,299.18,248.85,312.12z M313.69,245.48c-3.65-1.8-7.01-3.46-10.55-5.21
			c4.41-8.79,8.07-17.68,10.72-27.25c-3.73-1.08-7.38-2.14-11.24-3.26c6.69-24.42,6.72-48.78-0.01-73.32
			c1.91-0.56,3.73-1.1,5.55-1.63c1.83-0.53,3.67-1.03,5.69-1.6c-2.57-9.54-6.3-18.45-10.71-27.33c3.56-1.75,6.97-3.43,10.54-5.19
			c11.53,22.71,17.35,46.56,17.44,71.81C331.21,198.16,325.39,222.39,313.69,245.48z"/>
		<radialGradient id="SVGID_2_" cx="-31.1748" cy="18.5697" r="515.1953" gradientUnits="userSpaceOnUse">
			<stop  offset="0" style="stop-color:#B7B7B6"/>
			<stop  offset="1" style="stop-color:#000000"/>
		</radialGradient>
		<path fill="url(#SVGID_2_)" d="M168.78,0c-10.45,11.86-20.76,23.55-31.06,35.23c8.91,12.8,14.4,26.63,15.02,42.2
			c-0.65-0.53-1.12-1.14-1.57-1.77c-7.18-9.88-15.97-17.94-26.76-23.78c-1.17-0.63-1.85-0.52-2.75,0.5
			c-4.12,4.66-8.34,9.23-12.51,13.84c-2.08,2.29-4.14,4.6-6.2,6.88c0.19,0.21,0.25,0.32,0.34,0.36c0.46,0.23,0.94,0.44,1.41,0.66
			c10.54,4.86,19.72,11.5,26.36,21.14c4.93,7.15,8.18,15.18,10.86,23.4c5.88,17.98,6.87,36.1,0.85,54.27
			c-2.27,6.85-5.07,13.48-10.27,18.75c-9.44,9.58-20.67,13.22-33.87,10.06c-9.44-2.26-17.77-6.85-24.84-13.34
			C62.76,178.29,54.62,166.09,49.47,152c-6.69-18.33-6.82-37-2.21-55.74c6.07-24.7,17.96-46.45,34.25-65.87
			c0.32-0.38,0.6-0.78,0.89-1.17c-0.1-0.14-0.2-0.29-0.29-0.43c-0.61,0.28-1.26,0.48-1.81,0.84C67.54,38.11,55.86,47.89,45.51,59.2
			C19.67,87.42,4.65,120.54,0.82,158.63c-1.81,18.02-0.58,35.91,3.49,53.54c8.67,37.49,27.51,68.94,56.96,93.78
			c29,24.45,62.64,37.54,100.51,39.4c2.44,0.12,4.88,0.19,7.31,0.22V0.35C168.98,0.23,168.88,0.12,168.78,0z"/>
	</g>
	<g>
		<radialGradient id="SVGID_3_" cx="27.6639" cy="308.118" r="509.3945" gradientUnits="userSpaceOnUse">
			<stop  offset="0" style="stop-color:#B7B7B6"/>
			<stop  offset="1" style="stop-color:#000000"/>
		</radialGradient>
		<path fill="url(#SVGID_3_)" d="M173.44,344.41v-64.12c4.53-0.04,9.03-0.39,13.4-1.02l1.33-0.19l-6.3-52.56
			c6.54-1.2,12.43-3.36,17.98-6.58c5.4-3.14,10.17-7.18,14.54-12.33l42.64,31.87l0.83-1.1c5.9-7.86,10.53-15.96,14.14-24.76
			l0.52-1.26l-48.88-20.9c4.28-12.48,4.18-25.06-0.27-37.44l49.3-21.09l-0.55-1.27c-3.95-9.19-8.66-17.25-14.39-24.65l-0.83-1.07
			l-42.9,32.16c-8.63-9.9-19.45-16.1-32.22-18.45l6.41-53.52l-1.38-0.16c-4.66-0.55-9.04-0.83-13.36-0.86V1.77h7.43
			c0.15,0.03,0.29,0.06,0.43,0.09c0.47,0.1,0.95,0.2,1.48,0.23c29.63,1.78,56.7,10.44,80.45,25.75
			c22.9,14.76,41.21,32.86,54.41,53.8c13.2,20.94,21.66,45.28,25.14,72.34c0.31,2.43,0.54,4.93,0.77,7.35
			c0.1,1.13,0.21,2.26,0.32,3.39v16.34c-0.03,0.24-0.07,0.48-0.11,0.72c-0.1,0.62-0.19,1.26-0.23,1.93
			c-0.94,15.67-3.97,30.87-8.99,45.18c-6.23,17.73-14.89,33.93-25.74,48.14c-10.86,14.22-24.2,26.83-39.66,37.48
			c-23,15.85-48.93,25.53-77.08,28.76c-2.54,0.29-5.14,0.55-7.65,0.8c-1.16,0.11-2.33,0.23-3.49,0.35H173.44z M206.97,314.42
			c-7.9,2-16.42,3.26-27.37,4.04l-1.36,0.1l0.86,14.11l1.32-0.02c17.07-0.27,44.18-5.49,69.11-19.33
			c23.38-12.98,42.71-30.98,57.45-53.5l0.75-1.15l-12.07-7.99l-0.76,1.15c-5.63,8.47-11.27,15.58-17.2,21.7l-8.38-8.13l-0.96,0.97
			c-8.83,8.93-18.59,16.52-29.02,22.54c-10.4,6.01-21.8,10.66-33.88,13.82l-1.32,0.35L206.97,314.42z M312.16,213.96
			c-2.4,8.32-5.76,16.74-10.26,25.69l-0.62,1.24l13.02,6.43l0.62-1.22c11.76-23.2,17.68-47.97,17.59-73.61
			c-0.09-25.24-6.01-49.61-17.59-72.43l-0.62-1.22l-13.01,6.41l0.62,1.24c4.69,9.43,7.96,17.65,10.25,25.75l-0.5,0.14
			c-1.33,0.37-2.6,0.73-3.87,1.09c-1.27,0.36-2.53,0.74-3.83,1.12l-1.73,0.51l-1.3,0.38l0.36,1.31c3.31,12.08,4.99,24.3,4.99,36.34
			c0,12.01-1.68,24.2-4.98,36.25l-0.36,1.31L312.16,213.96z M277.45,72.39c6.32,6.55,11.87,13.57,17.39,21.96l0.76,1.16l12.15-8.03
			l-0.76-1.15c-17.61-26.65-40.98-46.64-69.45-59.4c-17.98-8.06-37.18-12.62-57.08-13.56l-1.36-0.06l-0.08,1.36
			c-0.06,1.04-0.12,2.06-0.18,3.06c-0.13,2.4-0.26,4.66-0.47,6.92c-0.26,2.91,1.96,3.17,2.91,3.28c7.56,0.9,14.32,1.78,20.67,2.68
			c1.41,0.2,2.8,0.56,4.27,0.94c0.24,0.06,0.49,0.13,0.74,0.19l-2.85,11.37l1.32,0.34c24.45,6.36,45.15,18.37,63.29,36.72l1.05,1.06
			L277.45,72.39z"/>
		<radialGradient id="SVGID_4_" cx="27.6639" cy="308.118" r="509.3945" gradientUnits="userSpaceOnUse">
			<stop  offset="0" style="stop-color:#B7B7B6"/>
			<stop  offset="1" style="stop-color:#000000"/>
		</radialGradient>
		<path fill="url(#SVGID_4_)" d="M167.71,344.16c-1.97-0.04-3.93-0.1-5.86-0.2c-18.73-0.92-36.61-4.66-53.15-11.13
			c-16.6-6.49-32.26-15.89-46.54-27.94c-14.47-12.21-26.58-26.27-35.98-41.8c-9.32-15.39-16.22-32.63-20.52-51.23
			c-4.07-17.61-5.24-35.48-3.46-53.09c1.89-18.76,6.59-36.59,13.98-52.99c7.35-16.32,17.56-31.68,30.36-45.65
			c8.96-9.78,19.31-18.79,30.81-26.82C61.95,52.64,51.39,73.68,45.92,95.92c-4.91,19.97-4.15,39,2.25,56.55
			c5.21,14.28,13.52,26.72,24.67,36.96c7.4,6.79,15.97,11.39,25.46,13.67c3.19,0.76,6.33,1.15,9.34,1.15
			c9.57,0,18.26-3.9,25.84-11.58c5.56-5.65,8.38-12.61,10.6-19.29c5.82-17.54,5.54-35.58-0.85-55.13
			c-2.24-6.85-5.52-15.75-11.04-23.75c-6.25-9.07-15.06-16.14-26.92-21.61c0,0-0.18-0.08-0.18-0.08l0.79-0.88
			c1.43-1.59,2.85-3.17,4.29-4.76c1.23-1.36,2.47-2.72,3.71-4.08c2.91-3.19,5.91-6.49,8.82-9.78c0.34-0.38,0.48-0.42,0.48-0.43
			c0.03,0,0.18,0.01,0.57,0.22c10.17,5.5,19.02,13.37,26.3,23.37c0.49,0.67,1.03,1.39,1.81,2.02l2.38,1.95l-0.12-3.07
			c-0.59-14.68-5.38-28.44-14.66-42.04l28.23-32.03V344.16z"/>
	</g>
	<g>
		<radialGradient id="SVGID_5_" cx="-65.2393" cy="319.989" r="605.4941" gradientUnits="userSpaceOnUse">
			<stop  offset="0" style="stop-color:#B7B7B6"/>
			<stop  offset="1" style="stop-color:#000000"/>
		</radialGradient>
		<path fill="url(#SVGID_5_)" d="M174.82,343.03v-61.38c4.13-0.09,8.23-0.43,12.22-1.01l2.67-0.39l-6.3-52.62
			c6.19-1.27,11.83-3.41,17.15-6.5c5.19-3.02,9.8-6.84,14.05-11.65l42.71,31.93l1.66-2.2c5.98-7.96,10.66-16.15,14.32-25.06
			l1.03-2.52l-48.97-20.93c3.83-11.97,3.75-24.03-0.25-35.91l49.38-21.12l-1.09-2.54c-3.99-9.3-8.76-17.46-14.57-24.96l-1.67-2.15
			l-42.97,32.21c-8.4-9.26-18.77-15.2-30.89-17.69l6.43-53.62l-2.75-0.32c-4.22-0.49-8.21-0.77-12.14-0.85V3.16h5.92
			c0.09,0.02,0.19,0.04,0.28,0.06c0.49,0.1,1.05,0.22,1.68,0.26c29.39,1.77,56.23,10.36,79.78,25.53
			c22.73,14.65,40.9,32.61,53.99,53.37c13.09,20.77,21.49,44.92,24.94,71.78c0.31,2.41,0.54,4.9,0.76,7.3
			c0.1,1.11,0.21,2.22,0.32,3.33v16.18c-0.03,0.2-0.06,0.4-0.09,0.6c-0.1,0.65-0.2,1.33-0.25,2.06
			c-0.94,15.55-3.94,30.62-8.92,44.81c-6.18,17.6-14.77,33.67-25.53,47.76c-10.77,14.1-24,26.61-39.34,37.19
			c-22.81,15.72-48.53,25.32-76.45,28.53c-2.53,0.29-5.13,0.55-7.63,0.79c-1.14,0.11-2.28,0.23-3.42,0.34H174.82z M205.29,313.42
			c-7.45,1.79-15.54,2.94-25.8,3.67l-2.73,0.19l1.02,16.8l2.64-0.04c17.23-0.28,44.61-5.54,69.76-19.5
			c23.58-13.09,43.07-31.24,57.93-53.95l1.5-2.3l-14.37-9.51l-1.53,2.3c-5.28,7.94-10.56,14.67-16.09,20.5l-8.36-8.12l-1.92,1.95
			c-8.74,8.85-18.41,16.35-28.72,22.32c-10.29,5.95-21.58,10.55-33.53,13.68l-2.64,0.69L205.29,313.42z M310.44,214.9
			c-2.35,7.81-5.56,15.73-9.77,24.13l-1.25,2.49l15.49,7.65l1.24-2.44c11.86-23.4,17.83-48.38,17.73-74.24
			c-0.09-25.46-6.06-50.03-17.74-73.05l-1.24-2.43l-15.48,7.62l1.23,2.48c4.39,8.83,7.53,16.59,9.77,24.18
			c-1.03,0.29-2.04,0.57-3.04,0.86c-1.27,0.36-2.54,0.74-3.83,1.12l-1.73,0.51l-2.6,0.76l0.72,2.62
			c3.28,11.96,4.94,24.06,4.94,35.97c0,11.88-1.66,23.96-4.93,35.89l-0.72,2.63L310.44,214.9z M277.5,74.45
			c5.83,6.18,11.02,12.81,16.19,20.66l1.52,2.31l14.46-9.56l-1.52-2.3c-17.76-26.88-41.32-47.03-70.04-59.89
			c-18.13-8.13-37.51-12.73-57.58-13.68l-2.72-0.13l-0.17,2.72c-0.06,1.05-0.12,2.07-0.18,3.07c-0.13,2.38-0.26,4.64-0.46,6.87
			c-0.17,1.94,0.4,4.34,4.12,4.78c7.55,0.9,14.3,1.78,20.64,2.68c1.15,0.16,2.31,0.45,3.53,0.76l-2.85,11.37l2.65,0.69
			c24.2,6.3,44.69,18.19,62.65,36.35l2.1,2.12L277.5,74.45z"/>
		<radialGradient id="SVGID_6_" cx="-65.2393" cy="319.989" r="605.4941" gradientUnits="userSpaceOnUse">
			<stop  offset="0" style="stop-color:#B7B7B6"/>
			<stop  offset="1" style="stop-color:#000000"/>
		</radialGradient>
		<path fill="url(#SVGID_6_)" d="M166.32,342.75c-1.48-0.04-2.96-0.09-4.41-0.16c-18.58-0.91-36.32-4.63-52.71-11.04
			c-16.46-6.44-31.98-15.76-46.16-27.71c-14.36-12.11-26.37-26.06-35.69-41.46C18.12,247.11,11.27,230.01,7,211.55
			c-4.04-17.47-5.19-35.18-3.44-52.64c1.87-18.61,6.54-36.3,13.86-52.56c7.29-16.18,17.42-31.42,30.11-45.28
			C54.42,53.55,62.12,46.5,70.55,40C58.11,57.38,49.39,76.02,44.58,95.59c-4.98,20.25-4.2,39.54,2.3,57.35
			c5.29,14.49,13.72,27.11,25.04,37.5c7.58,6.95,16.35,11.66,26.07,13.99c3.3,0.79,6.55,1.19,9.66,1.19
			c9.96,0,18.98-4.04,26.82-11.99c5.78-5.86,8.77-13.31,10.93-19.82c5.92-17.83,5.64-36.15-0.84-55.99
			c-2.27-6.94-5.59-15.96-11.21-24.11c-6.13-8.89-14.64-15.89-25.97-21.37c1.28-1.42,2.55-2.84,3.84-4.25
			c1.23-1.36,2.47-2.72,3.7-4.07c2.82-3.1,5.74-6.3,8.57-9.5c9.83,5.39,18.4,13.05,25.47,22.77c0.52,0.71,1.15,1.54,2.06,2.28
			l4.76,3.9l-0.25-6.14c-0.59-14.62-5.27-28.34-14.29-41.87l25.11-28.49V342.75z"/>
	</g>
</g>
<g>
</g>
<g>
</g>
<g>
</g>
<g>
</g>
<g>
</g>
<g>
</g>
<g>
</g>
<g>
</g>
<g>
</g>
<g>
</g>
<g>
</g>
<g>
</g>
<g>
</g>
<g>
</g>
<g>
</g>
</svg>
